<svg width="800" height="800" viewBox="0 0 800 800" fill="none" xmlns="http://www.w3.org/2000/svg">
<path d="M733.333 500C733.333 629 629 733.333 500 733.333L535 675" stroke="#43E9E9" stroke-width="50" stroke-linecap="round" stroke-linejoin="round"/>
<path d="M66.666 300.001C66.666 171.001 170.999 66.668 299.999 66.668L264.999 125.001" stroke="#E93F3F" stroke-width="50" stroke-linecap="round" stroke-linejoin="round"/>
<path d="M456.641 148.34L589.307 225.006L720.641 148.674" stroke="#A84BFF" stroke-width="50" stroke-linecap="round" stroke-linejoin="round"/>
<path d="M589.324 360.678V224.676" stroke="#A84BFF" stroke-width="50" stroke-linecap="round" stroke-linejoin="round"/>
<path d="M557.986 73.668L477.986 118C459.986 128 444.986 153.333 444.986 174V258.668C444.986 279.334 459.653 304.667 477.986 314.667L557.986 359.001C574.986 368.668 602.986 368.668 620.32 359.001L700.32 314.667C718.32 304.667 733.32 279.334 733.32 258.668V174C733.32 153.333 718.653 128 700.32 118L620.32 73.668C603.32 64.3346 575.32 64.3346 557.986 73.668Z" stroke="#A84BFF" stroke-width="50" stroke-linecap="round" stroke-linejoin="round"/>
<path d="M78.3203 515.008L210.654 591.674L342.32 515.341" stroke="#FFE34B" stroke-width="50" stroke-linecap="round" stroke-linejoin="round"/>
<path d="M210.678 727.343V591.34" stroke="#FFE34B" stroke-width="50" stroke-linecap="round" stroke-linejoin="round"/>
<path d="M179.666 440.332L99.6663 484.665C81.6663 494.665 66.666 519.995 66.666 540.662V625.332C66.666 645.999 81.333 671.332 99.6663 681.332L179.666 725.665C196.666 735.332 224.666 735.332 241.999 725.665L321.999 681.332C339.999 671.332 354.999 645.999 354.999 625.332V540.662C354.999 519.995 340.333 494.665 321.999 484.665L241.999 440.332C224.666 430.999 196.666 430.999 179.666 440.332Z" stroke="#FFE34B" stroke-width="50" stroke-linecap="round" stroke-linejoin="round"/>
</svg>
