<svg width="800" height="800" viewBox="0 0 800 800" fill="none" xmlns="http://www.w3.org/2000/svg">
<g clip-path="url(#clip0_142_2)">
<path d="M791.499 100.756C804.724 62.0978 802.363 33.4353 784.488 15.5556C753.824 -15.1069 699.638 7.7322 681.832 15.2369C646.201 30.2541 602.89 55.9916 553.007 91.7681C505.86 69.0884 453.846 57.0994 399.98 57.0994C305.588 57.0994 216.846 93.8588 150.101 160.604C40.6445 270.063 18.1554 434.048 82.6054 565.926C3.53669 679.059 -18.4305 750.66 15.4757 784.567C25.7617 794.853 39.6148 800.001 56.8898 800.001C69.6414 800.001 84.257 797.196 100.673 791.578C130.218 781.47 166.704 762.226 209.12 734.376C215.929 729.906 222.854 725.224 229.865 720.384C281.393 748.765 339.523 763.868 399.98 763.868C494.373 763.868 583.115 727.109 649.86 660.363C762.679 547.546 783.098 376.807 711.165 242.995C719.345 231.484 727.071 220.201 734.296 209.199C762.146 166.787 781.393 130.299 791.499 100.756ZM52.4945 747.42C49.6961 738.485 56.1617 699.528 112.044 615.371C123.287 631.151 135.954 646.22 150.099 660.365C160.468 670.734 171.371 680.378 182.741 689.274C88.4101 751.651 57.3695 748.529 52.4945 747.42ZM227.865 657.757C213.409 647.649 199.73 636.207 186.996 623.473C69.5539 506.031 69.5539 314.94 186.995 197.498C243.885 140.609 319.527 109.276 399.982 109.276C480.437 109.276 556.079 140.607 612.97 197.498C626.348 210.876 638.182 225.217 648.513 240.287C597.36 308.413 531.149 383.793 457.432 457.51C379.234 535.709 299.16 605.468 227.865 657.757ZM612.97 623.474C556.079 680.363 480.438 711.696 399.982 711.696C357.077 711.696 315.543 702.781 277.49 685.837C345.929 633.923 420.755 567.974 494.324 494.404C563.415 425.313 625.78 355.118 676.116 290.142C723.982 400.329 702.935 533.51 612.97 623.474ZM684.001 190.61C682.876 192.277 681.721 193.963 680.573 195.643C671.232 183.462 661.005 171.748 649.863 160.606C635.095 145.837 619.246 132.545 602.501 120.784C637.49 96.7806 669.046 78.1994 694.884 66.4775C730.096 50.4994 744.046 51.9134 747.365 52.6681C748.521 57.9775 751.349 90.7806 684.001 190.61Z" fill="url(#paint0_linear_142_2)"/>
</g>
<defs>
<linearGradient id="paint0_linear_142_2" x1="400" y1="0" x2="400" y2="800.001" gradientUnits="userSpaceOnUse">
<stop stop-color="#00FF73"/>
<stop offset="0.25" stop-color="#00E676" stop-opacity="0.75"/>
<stop offset="0.5" stop-color="#00C37A" stop-opacity="0.5"/>
<stop offset="0.75" stop-color="#4BFF73" stop-opacity="0.75"/>
<stop offset="1" stop-color="#00FF73"/>
</linearGradient>
<clipPath id="clip0_142_2">
<rect width="800" height="800" fill="white"/>
</clipPath>
</defs>
</svg>
